<?xml version="1.0" encoding="UTF-8" standalone="no"?>
<!-- Created with Inkscape (http://www.inkscape.org/) -->
<!--
Copyright (c) 2014
@author Oliver Merkel, Merkel(dot)Oliver(at)web(dot)de.
All rights reserved.

This graphics is licensed under a
http://creativecommons.org/licenses/by-nc-sa/4.0/deed.en_US
Creative Commons Attribution-NonCommercial-ShareAlike 4.0 International License.
-->
<svg
   xmlns:dc="http://purl.org/dc/elements/1.1/"
   xmlns:cc="http://creativecommons.org/ns#"
   xmlns:rdf="http://www.w3.org/1999/02/22-rdf-syntax-ns#"
   xmlns:svg="http://www.w3.org/2000/svg"
   xmlns="http://www.w3.org/2000/svg"
   xmlns:sodipodi="http://sodipodi.sourceforge.net/DTD/sodipodi-0.dtd"
   xmlns:inkscape="http://www.inkscape.org/namespaces/inkscape"
   width="100%"
   height="100%"
   viewBox="0 0 730 380"
   id="svg2"
   version="1.1"
   inkscape:version="0.48.5 r10040"
   sodipodi:docname="Adinkra symbols - Gye Nyame, Akoben, Sankofa">
  <defs
     id="defs4" />
  <sodipodi:namedview
     id="base"
     pagecolor="#ffffff"
     bordercolor="#666666"
     borderopacity="1.0"
     inkscape:pageopacity="0.0"
     inkscape:pageshadow="2"
     inkscape:zoom="1.5861561"
     inkscape:cx="429.33809"
     inkscape:cy="810.93226"
     inkscape:document-units="px"
     inkscape:current-layer="layer1"
     showgrid="false"
     inkscape:window-width="1920"
     inkscape:window-height="1138"
     inkscape:window-x="-8"
     inkscape:window-y="-8"
     inkscape:window-maximized="1" />
  <metadata
     id="metadata7">
    <rdf:RDF>
      <cc:Work
         rdf:about="">
        <dc:format>image/svg+xml</dc:format>
        <dc:type
           rdf:resource="http://purl.org/dc/dcmitype/StillImage" />
        <dc:title>Adinkra symbols - Gye Nyame, Akoben, Sankofa</dc:title>
        <dc:date>2014-08-27</dc:date>
        <dc:creator>
          <cc:Agent>
            <dc:title>Oliver Merkel, Merkel(dot)Oliver (at)web(dot) de</dc:title>
          </cc:Agent>
        </dc:creator>
        <dc:rights>
          <cc:Agent>
            <dc:title>Oliver Merkel, Merkel(dot)Oliver (at)web(dot) de</dc:title>
          </cc:Agent>
        </dc:rights>
        <dc:publisher>
          <cc:Agent>
            <dc:title>Oliver Merkel, Merkel(dot)Oliver (at)web(dot) de</dc:title>
          </cc:Agent>
        </dc:publisher>
        <dc:language>en-GB</dc:language>
        <cc:license
           rdf:resource="http://creativecommons.org/licenses/by-nc-sa/4.0/" />
      </cc:Work>
      <cc:License
         rdf:about="http://creativecommons.org/licenses/by-nc-sa/4.0/">
        <cc:permits
           rdf:resource="http://creativecommons.org/ns#Reproduction" />
        <cc:permits
           rdf:resource="http://creativecommons.org/ns#Distribution" />
        <cc:requires
           rdf:resource="http://creativecommons.org/ns#Notice" />
        <cc:requires
           rdf:resource="http://creativecommons.org/ns#Attribution" />
        <cc:prohibits
           rdf:resource="http://creativecommons.org/ns#CommercialUse" />
        <cc:permits
           rdf:resource="http://creativecommons.org/ns#DerivativeWorks" />
        <cc:requires
           rdf:resource="http://creativecommons.org/ns#ShareAlike" />
      </cc:License>
    </rdf:RDF>
  </metadata>
  <g
     inkscape:label="Layer 1"
     inkscape:groupmode="layer"
     id="layer1">
    <g
       id="g3073"
       transform="translate(-143,-274)">
      <path
         sodipodi:nodetypes="csssssssssssscssssssssssssscc"
         inkscape:connector-curvature="0"
         id="path2996"
         d="m 229.99999,527.57888 c -63.21429,-70.35715 -39.25239,-138.10938 12.5,-147.14286 14.06013,-2.45422 16.67599,12.93106 1.90403,17.02928 -42.10417,11.68106 -27.14796,55.15003 0.93013,38.55354 10.24741,-6.05707 12.16823,9.1272 2.26563,10.58776 -37.98653,5.60274 -37.13177,55.19832 -8.38335,43.18641 5.80122,-2.42392 15.44584,-16.14576 12.71519,8.84162 -1.15292,10.54999 -19.67736,42.63496 -12.53012,57.0345 13.03739,26.26644 56.37503,22.2532 50.82338,-25.91543 -0.871,-7.5572 -0.1464,-7.09119 16.7802,-7.29859 3.83825,-0.047 5.19324,1.29852 6.38073,8.88721 9.70287,62.006 80.88951,17.63783 44.94168,-25.89457 -4.45781,-5.39836 2.22839,-9.63613 8.86072,-16.30136 13.60858,-13.6761 60.53187,-125.06909 -60.16106,-157.22798 36.20528,29.68721 76.66734,104.59606 -5.8547,144.08215 -2.62059,1.25393 -13.03903,2.94326 -12.56963,-6.94189 0.64898,-13.66698 31.95561,-8.74143 34.51356,-29.10426 4.38613,-34.91621 -24.7135,-21.36228 -30.79421,-17.50481 -5.83124,3.69922 -4.35181,-5.04923 -3.32163,-7.07514 3.71692,-7.30958 25.78782,-8.07128 32.53251,-24.31186 2.50773,-6.03838 4.27139,-42.63407 -30.67412,-18.10553 -3.36327,2.36071 -2.05736,-22.70495 5.65095,-34.10626 34.9155,-51.64328 -58.76036,-85.2023 -45.25571,-10.1267 1.42826,7.94005 -11.94167,5.23854 -17.6939,5.40447 -2.99684,0.0865 -4.84812,0.90674 -5.17199,-10.95642 -1.39392,-51.05732 -85.57868,-29.51304 -45.46757,28.48942 5.79794,8.38408 -14.45584,11.63304 -21.46356,35.34461 -17.24424,58.34819 -2.97408,97.33632 50.92808,129.71091 z"
         style="fill:#f0a513;fill-opacity:1;stroke:#808080;stroke-width:4px;stroke-linecap:butt;stroke-linejoin:miter;stroke-opacity:1" />
      <path
         sodipodi:nodetypes="csssssssssssssssssc"
         inkscape:connector-curvature="0"
         id="path2996-7"
         d="m 429.59297,284.17136 c 165.88688,27.56512 135.51747,145.9428 94.25586,155.86191 -15.20086,3.65422 -15.66494,18.81398 5.13731,17.49118 40.35616,-2.56622 22.27508,37.13602 -2.30315,27.92989 -11.14735,-4.1754 -19.57943,18.92381 5.03702,16.13054 34.18662,-3.87922 22.58016,31.58659 2.70219,26.55809 -21.08546,-5.33395 -30.3144,21.44805 0.24395,16.23198 17.9989,-3.07226 33.90276,33.85891 -8.83494,26.08737 -28.85091,-5.24633 -56.98276,-2.79178 -79.43172,0.87463 -21.42919,3.49985 -41.00789,-28.30571 2.92328,-27.62208 17.86541,0.27801 15.17636,-22.12521 -9.78569,-15.13147 -20.63901,5.78255 -21.71439,-30.52346 -0.78617,-26.81836 17.95873,3.17938 37.3326,-18.41218 1.47036,-16.30136 -19.25991,1.13362 -28.3566,-33.56588 5.89028,-28.35857 18.89775,2.87344 30.35987,-12.08451 -4.87371,-18.72668 -6.10102,-1.15015 -14.36411,-3.4772 -24.07586,-8.09325 -4.11775,-1.9572 -16.85972,-34.58244 27.48018,-19.54303 46.5247,15.78045 66.3871,-20.43119 56.94417,-47.36256 -11.93932,-34.05109 -71.99336,-79.20823 -71.99336,-79.20823 z"
         style="fill:#f0a513;fill-opacity:1;stroke:#808080;stroke-width:4px;stroke-linecap:butt;stroke-linejoin:miter;stroke-opacity:1" />
      <path
         id="path2996-7-4-8-8-2"
         d="m 778.09375,284.03125 c -40.95971,0.36034 -59.625,27.1875 -59.625,27.1875 0,0 -18.66529,-26.57716 -59.625,-26.9375 -30.29833,-0.26654 -71.15983,26.10902 -75.96875,73.6875 -5.65694,55.96868 -3.05931,49.6375 93.40625,161.125 9.32174,10.77335 24.30318,26.24132 -3.9375,45.5625 -16.10519,11.01855 -49.80192,-11.5119 -28.65625,-30.84375 12.22168,-11.17335 17.57919,3.95248 10.40625,7 -4.23668,1.80001 -12.84161,18.51858 14.1875,12.3125 12.90094,-2.96215 14.4477,-45.08448 -26.0625,-39.375 -40.15499,5.65942 -35.16343,84.09173 26.40625,77.84375 17.8475,-1.81113 29.1875,-14.28125 29.1875,-14.28125 -3.1024,16.04219 -13.34661,19.96681 -18.9375,23.6875 -6.26928,4.17215 -6.95614,17.22815 7.15625,16.0625 10.69311,-0.88322 21.875,-13.125 21.875,-13.125 0,0 -2.59241,40.60733 10.5625,39.8125 16.40371,0.13738 10.5625,-40.09375 10.5625,-40.09375 0,0 11.18189,12.27303 21.875,13.15625 14.11239,1.16565 13.42553,-11.9216 7.15625,-16.09375 -5.59089,-3.72069 -15.8351,-7.64531 -18.9375,-23.6875 0,0 11.34,12.50137 29.1875,14.3125 61.56968,6.24798 66.56124,-72.21558 26.40625,-77.875 -40.5102,-5.70948 -38.96344,36.4441 -26.0625,39.40625 27.02911,6.20608 18.42418,-10.51249 14.1875,-12.3125 -7.17294,-3.04752 -1.81543,-18.2046 10.40625,-7.03125 21.14567,19.33185 -12.55106,41.89355 -28.65625,30.875 -28.24068,-19.32118 -13.25924,-34.78915 -3.9375,-45.5625 96.46556,-111.4875 99.06319,-105.15632 93.40625,-161.125 -4.80892,-47.57848 -45.67042,-73.95404 -75.96875,-73.6875 z m 2.125,31.15625 c 39.83489,-1.1613 90.84804,56.85355 8.65625,133.75 -8.45829,7.91335 -56.71153,62.67134 -69.59375,76.75 l -0.5625,0.0625 c -12.88222,-14.07866 -61.13546,-68.8679 -69.59375,-76.78125 -84.84314,-79.37697 -27.71936,-138.61967 12.5,-133.4375 75.83903,9.77169 47.91156,96.51339 2.25,81.09375 -36.02867,-12.16667 -18.43496,-54.84093 2.09375,-47.65625 24.92609,8.72368 6.84997,22.96746 2.6875,16.40625 -3.94394,-6.21674 -10.01396,-6.89694 -13.4375,1.875 -3.77585,9.67467 16.6667,36.00401 36.5,7.65625 C 713.07893,344.37613 666.5497,310.34676 634.03125,338 582.16588,382.1056 664.4766,470.67052 719,391.34375 c 54.5234,79.26851 136.83412,-9.30065 84.96875,-53.40625 -32.51845,-27.65324 -79.01643,6.37613 -57.65625,36.90625 19.8333,28.34776 40.2446,2.01842 36.46875,-7.65625 -3.42354,-8.77194 -9.49356,-8.09174 -13.4375,-1.875 -4.16247,6.56121 -22.20734,-7.68257 2.71875,-16.40625 20.52871,-7.18468 38.12242,35.48958 2.09375,47.65625 -45.66156,15.41964 -73.58903,-71.32206 2.25,-81.09375 1.25685,-0.16194 2.5275,-0.24379 3.8125,-0.28125 z"
         style="fill:#f0a513;fill-opacity:1;stroke:#808080;stroke-width:4px;stroke-linecap:butt;stroke-linejoin:miter;stroke-opacity:1"
         inkscape:connector-curvature="0" />
    </g>
  </g>
</svg>
